# xmcd
#
# Track frame offsets: 
#        150
#        19243
#        34893
#        56199
#        72317
#        94524
#        109226
#        132041
#        149648
#        169368
#        190579
#
# Disc length: 2841 seconds
#
# Revision: 0
# Processed by: cddbd v1.5.2PL0 Copyright (c) Steve Scherf et al.
# Submitted via: ExactAudioCopy v1.3
#
DISCID=a10b170b
DTITLE=CADAVERIA - SILENCE
DYEAR=2014
DGENRE=METAL
TTITLE0=VELO (THE OTHER SIDE OF HATE)
TTITLE1=CARNIVAL OF DOOM
TTITLE2=FREE SPIRIT
TTITLE3=THE SOUL THAT DOESN'T SLEEP
TTITLE4=EXISTENCE
TTITLE5=OUT LOUD
TTITLE6=DEATH AGAIN
TTITLE7=EXERCISE1
TTITLE8=ALMOST GHOSTLY
TTITLE9=LONELINESS
TTITLE10=STRANGLED IDOLS
EXTD=
EXTT0=
EXTT1=
EXTT2=
EXTT3=
EXTT4=
EXTT5=
EXTT6=
EXTT7=
EXTT8=
EXTT9=
EXTT10=
PLAYORDER=
